<?xml version="1.0" encoding="UTF-8"?>
<svg id="Layer_2" data-name="Layer 2" xmlns="http://www.w3.org/2000/svg" xmlns:xlink="http://www.w3.org/1999/xlink" viewBox="0 0 695.02 177.02">
  <defs>
    <style>
      .cls-1 {
        fill: url(#linear-gradient);
      }
    </style>
    <linearGradient id="linear-gradient" x1="0" y1="89.51" x2="165.93" y2="89.51" gradientUnits="userSpaceOnUse">
      <stop offset="0" stop-color="#6e00ff"/>
      <stop offset="1" stop-color="blue"/>
    </linearGradient>
  </defs>
  <g id="Layer_1-2" data-name="Layer 1">
    <g>
      <g>
        <path d="M246.74,29.33l27.25,99.19-19.26-.04-5.76-21.82-34.84-.08-5.86,21.79-19.26-.04,27.7-99.07,30.02.07ZM244.48,89.37l-11.94-44.49h-1.7s-12.14,44.44-12.14,44.44l25.77.06Z"/>
        <path d="M295.23,128.57l-17.84-.04.22-99.13,17.84.04-.22,99.13Z"/>
        <path d="M324.4,128.63l-17.84-.04.22-99.13,17.84.04-.22,99.13Z"/>
        <path d="M406.98,59.14v4.25s-18.14-.04-18.14-.04v-2.83c.03-11.19-7.18-16.16-18.51-16.19-9.91-.02-16.01,4.92-16.03,11.58-.02,9.21,8.76,10.92,20.64,13.64l1.27.29c20.38,4.58,32.4,11.83,32.37,29.81-.04,19.97-15.65,31.12-36.75,31.07-24.22-.05-39.76-13.12-39.71-36.34v-3.12s18.42.04,18.42.04v2.27c-.03,12.18,6.89,20.41,21.9,20.44,12.04.03,17.72-6.33,17.73-13.55.02-8.64-7.34-11.35-20.36-14.21l-1.27-.29c-21.23-4.72-32.69-11.69-32.65-29.67.04-17.7,15.22-28.71,34.48-28.67,21.24.05,36.65,11.69,36.61,31.52Z"/>
        <path d="M449.75,56.69c19.54.04,31.7,10.98,35.35,26.99l-17.57,4.49c-1.26-8.22-6.76-15.03-17.53-15.05s-19,8.17-19.02,20.63c-.03,12.46,7.46,20.69,18.93,20.72,10.76.02,15.73-5.91,17.59-14.83l17.55,4.43c-3.43,16-15.78,26.87-35.46,26.83-20.39-.04-36.5-15.38-36.45-37.19.05-21.81,16.23-37.07,36.62-37.02Z"/>
        <path d="M523.67,56.85c20.68.05,36.79,15.09,36.74,37.19-.05,22.09-16.23,37.07-36.9,37.02-20.68-.05-36.79-15.09-36.74-37.19.05-22.09,16.23-37.07,36.9-37.02ZM523.54,114.63c11.33.03,18.99-8.17,19.02-20.63.03-12.46-7.6-20.69-18.93-20.72-11.33-.03-18.99,8.17-19.02,20.63-.03,12.46,7.6,20.69,18.93,20.72Z"/>
        <path d="M618.11,129.29l.03-11.33h-1.98c-2.85,6.5-9.38,12.44-22.26,12.41-15.58-.04-27.31-11.25-27.27-29.52l.09-41.92,17.84.04-.09,40.22c-.02,9.77,5.63,15.59,15.83,15.61,11.47.03,17.58-7.04,17.6-19.5l.08-36.25,17.84.04-.16,70.24-17.56-.04Z"/>
        <path d="M657.91,59.14l.05-21.81,17.84.04-.05,21.81,19.26.04-.04,15.58-19.26-.04-.08,34.84c0,2.83,1.41,4.25,3.96,4.26l11.33.03-.04,15.58-19.26-.04c-7.93-.02-13.87-5.7-13.85-13.63l.09-41.07-17.84-.04.04-15.58,17.84.04Z"/>
      </g>
      <g>
        <path d="M159.71.92h-2.29s0-.92,0-.92h5.6s0,.93,0,.93h-2.27s-.02,7.05-.02,7.05h-1.04s.02-7.05.02-7.05Z"/>
        <path d="M171.35.03l-.02,7.97h-.97s.01-5.83.01-5.83l-1.79,4.02h-.74s-1.78-4.02-1.78-4.02v5.81s-.98,0-.98,0l.02-7.97h.97s2.14,4.86,2.14,4.86L170.38.03h.97Z"/>
      </g>
      <path class="cls-1" d="M132.02,2.22l-97.65-.22C15.6,1.96.36,17.13.31,35.9l-.31,141.12,23.93-23.82,107.76.24c18.77.04,34.01-15.14,34.05-33.91l.19-83.26c.04-18.77-15.14-34.01-33.91-34.05ZM84.41,121.13c-23.97-.05-43.37-19.53-43.31-43.51.05-23.97,19.53-43.37,43.51-43.31,23.97.05,43.37,19.53,43.31,43.51-.05,23.97-19.53,43.37-43.51,43.31ZM84.51,115.06c-6.22,0-12.38-1.56-17.82-4.52-1.7-.92-2.33-3.05-1.4-4.75.92-1.7,3.05-2.32,4.75-1.4,4.41,2.4,9.42,3.67,14.47,3.67,16.73,0,30.33-13.61,30.33-30.33,0-4.1-.8-8.07-2.38-11.8-.75-1.78.08-3.83,1.86-4.59,1.78-.75,3.83.08,4.59,1.86,1.95,4.6,2.94,9.49,2.94,14.53,0,20.58-16.75,37.33-37.33,37.33Z"/>
    </g>
  </g>
</svg>